<?xml version="1.0" standalone="no"?>
<svg xmlns="http://www.w3.org/2000/svg" viewBox="0 0 171.2 49" width="171.2" height="49"><rect fill="#000" width="171.2" height="49" x="0" y="0"></rect><g fill="white" color="white" transform="translate(12 12) scale(0.25)"><svg width="100.0" height="100.0" x="0.0" y="0.0" viewBox="0 0 100 100"><path d="M24.5,40.4c6.8,0,12.2-5.5,12.2-12.2s-5.5-12.2-12.2-12.2c-6.8,0-12.2,5.5-12.2,12.2S17.7,40.4,24.5,40.4z M24.5,17.9  c5.6,0,10.2,4.6,10.2,10.2s-4.6,10.2-10.2,10.2s-10.2-4.6-10.2-10.2S18.8,17.9,24.5,17.9z"></path><path d="M89,29.5c0-9.2-7.5-16.7-16.7-16.7s-16.7,7.5-16.7,16.7s7.5,16.7,16.7,16.7S89,38.7,89,29.5z M57.6,30.5h10.6  c0.6,0,1-0.4,1-1s-0.4-1-1-1H57.6c0.1-0.8,0.2-1.5,0.3-2.3h13.3c0.6,0,1-0.4,1-1s-0.4-1-1-1H58.5c2.1-5.5,7.5-9.5,13.7-9.5  c4.3,0,8.2,1.9,10.9,4.9h-6.3c-0.6,0-1,0.4-1,1s0.4,1,1,1h7.8c0,0,0.1,0,0.1,0c1.4,2.3,2.3,5,2.3,7.8c0,1-0.1,2.1-0.3,3H73.3  c-0.6,0-1,0.4-1,1s0.4,1,1,1h12.8c-0.2,0.5-0.4,0.9-0.6,1.4h-6.7c-0.6,0-1,0.4-1,1s0.4,1,1,1h5.5c-2.7,3.8-7.1,6.3-12.1,6.3  C64.5,44.2,58.1,38.2,57.6,30.5z"></path><path d="M76.4,37.9c0.6,0,1-0.4,1-1s-0.4-1-1-1h-3.9c-0.6,0-1,0.4-1,1s0.4,1,1,1H76.4z"></path><path d="M68.7,64.2c0-12.7-10.3-23-23-23c-12.7,0-23,10.3-23,23c0,12.7,10.3,23,23,23C58.4,87.2,68.7,76.9,68.7,64.2z M60.2,79.3  c-0.5-0.1-0.9-0.3-1.4-0.5c-1.6-0.6-3.2-1.2-6.5-1.2c-3.2,0-4.9,0.6-6.5,1.2c-1.5,0.5-2.9,1-5.8,1c-2.9,0-4.3-0.5-5.8-1  c-1.2-0.4-2.5-0.9-4.6-1.1c-1.9-2.3-3.4-5-4.2-8c2.7,0.1,4.1,0.6,5.7,1c1.8,0.6,3.7,1.2,7.3,1.2c3.7,0,5.5-0.6,7.3-1.2  c1.7-0.5,3.4-1.1,6.7-1.1c3.4,0,5,0.5,6.7,1.1c1.6,0.5,3.2,1,6,1.1C64.1,74.8,62.4,77.3,60.2,79.3z M30.2,50.2  c1.4,0.2,2.4,0.5,3.4,0.9c1.6,0.6,3.2,1.2,6.4,1.2c3.2,0,4.9-0.6,6.4-1.2c1.5-0.5,2.9-1,5.8-1c2.9,0,4.2,0.5,5.6,1  c1.3,0.5,2.7,1,5.1,1.1c1.6,2.3,2.8,5,3.4,7.9c-2.7-0.1-4.2-0.6-5.8-1c-1.8-0.6-3.7-1.2-7.4-1.2s-5.6,0.6-7.4,1.2  c-1.8,0.5-3.4,1.1-6.8,1.1c-3.4,0-5.1-0.5-6.8-1.1c-1.6-0.5-3.3-1-6.4-1.1C26.6,55,28.2,52.4,30.2,50.2z M31.5,61  c1.8,0.6,3.7,1.2,7.4,1.2c3.7,0,5.6-0.6,7.4-1.2c1.8-0.5,3.4-1.1,6.8-1.1c3.4,0,5.1,0.5,6.8,1.1c1.7,0.5,3.5,1.1,6.7,1.1  c0.1,0.7,0.1,1.4,0.1,2.1c0,2-0.3,3.9-0.8,5.8c-2.9-0.1-4.4-0.5-6-1c-1.8-0.6-3.7-1.2-7.3-1.2c-3.7,0-5.5,0.6-7.3,1.2  c-1.7,0.5-3.4,1.1-6.7,1.1c-3.4,0-5-0.5-6.7-1.1c-1.7-0.5-3.5-1.1-6.7-1.1c-0.2-1.2-0.3-2.4-0.3-3.6c0-1.5,0.2-2.9,0.5-4.3  C28.2,60,29.8,60.4,31.5,61z M61,50c-1-0.2-1.7-0.5-2.5-0.8C57,48.6,55.4,48,52.2,48c-3.2,0-4.9,0.6-6.4,1.2c-1.5,0.5-2.9,1-5.8,1  c-2.9,0-4.3-0.5-5.8-1c-0.7-0.3-1.4-0.5-2.3-0.7c3.7-3.2,8.5-5.2,13.8-5.2C51.8,43.2,57.2,45.8,61,50z M32.2,80.3  c0.5,0.1,0.9,0.3,1.4,0.5c1.6,0.6,3.2,1.2,6.5,1.2c3.2,0,4.9-0.6,6.5-1.2c1.5-0.5,2.9-1,5.8-1c2.9,0,4.3,0.5,5.8,1  c0.1,0,0.2,0.1,0.3,0.1c-3.5,2.7-8,4.4-12.8,4.4C40.6,85.2,35.9,83.3,32.2,80.3z"></path></svg></g><path fill="white" fill-rule="nonzero" d="M18.88 24.48L18.92 24.52L14.48 24.52L2.40 4.04L2.40 24.52L0 24.52L0 0L4.36 0L16.48 20.44L16.48 0L18.88 0L18.88 24.48ZM29.56 0L29.56 24.52L25.48 24.52L25.48 0L29.56 0ZM47.76 11.80Q50.20 12.48 51.32 14.16Q52.44 15.84 52.44 17.96L52.44 17.96Q52.44 20.80 50.68 22.66Q48.92 24.52 44.68 24.52L44.68 24.52L36.12 24.52L36.12 0L43.52 0Q47.68 0 49.50 1.72Q51.32 3.44 51.32 6.28L51.32 6.28Q51.32 8.12 50.50 9.58Q49.68 11.04 47.76 11.80L47.76 11.80ZM40.20 1.52L40.20 11.20L43.24 11.20Q45.40 11.20 46.32 9.86Q47.24 8.52 47.24 6.32L47.24 6.32Q47.24 3.96 46.24 2.74Q45.24 1.52 43.24 1.52L43.24 1.52L40.20 1.52ZM44.28 23Q48.36 23 48.36 17.96L48.36 17.96Q48.36 15.76 47.32 14.24Q46.28 12.72 44.28 12.72L44.28 12.72L40.20 12.72L40.20 23L44.28 23ZM61.12 0L61.12 24.52L57.04 24.52L57.04 0L61.12 0ZM81.12 15.64L84.80 24.52L80.40 24.52L76.96 16Q76.48 14.84 75.78 14.46Q75.08 14.08 73.64 14.08L73.64 14.08L71.76 14.08L71.76 24.52L67.68 24.52L67.68 0L75.88 0Q80.24 0 82 2.14Q83.76 4.28 83.76 7.32L83.76 7.32Q83.76 9.56 82.70 11.30Q81.64 13.04 79.04 13.72L79.04 13.72Q80.48 14.24 81.12 15.64L81.12 15.64ZM71.76 12.60L75.44 12.60Q77.60 12.60 78.64 11.06Q79.68 9.52 79.68 7.32L79.68 7.32Q79.68 4.88 78.64 3.20Q77.60 1.52 75.44 1.52L75.44 1.52L71.76 1.52L71.76 12.60ZM107.20 0L107.20 16.40Q107.20 19.48 105.90 21.42Q104.60 23.36 102.62 24.18Q100.64 25 98.44 25L98.44 25Q94.48 25 91.86 23.02Q89.24 21.04 89.24 16.40L89.24 16.40L89.24 0L93.32 0L93.32 16.40Q93.32 19.84 94.78 21.42Q96.24 23 98.72 23L98.72 23Q101.28 23 103.06 21.38Q104.84 19.76 104.84 16.40L104.84 16.40L104.84 0L107.20 0Z" transform="translate(52 12) scale(1)"></path></svg>